<svg width="55" height="55" viewBox="0 0 55 55" fill="none" xmlns="http://www.w3.org/2000/svg">
<path d="M36.8591 52.9016C36.006 52.9039 35.161 52.7371 34.3728 52.4108C33.5847 52.0844 32.869 51.605 32.2674 51.0003L13.5483 32.2804C12.9248 31.6543 12.4353 30.9077 12.1098 30.0862C11.7842 29.2647 11.6293 28.3856 11.6546 27.5023C11.629 26.6183 11.7837 25.7384 12.1093 24.9161C12.4349 24.0938 12.9245 23.3465 13.5483 22.7196L32.2681 3.99973C32.8696 3.39498 33.5851 2.91554 34.3731 2.58918C35.1612 2.26282 36.0061 2.09601 36.8591 2.09841C38.5939 2.09841 40.224 2.77369 41.4501 3.99973C43.9816 6.53126 43.9816 10.6509 41.4501 13.1824L27.1325 27.5L41.4501 41.8168C43.9816 44.3483 43.9816 48.468 41.4501 50.9995C40.8486 51.6044 40.1332 52.084 39.3451 52.4105C38.5571 52.737 37.7121 52.9039 36.8591 52.9016ZM36.8591 5.15397C36.4076 5.15278 35.9603 5.24107 35.5431 5.41375C35.1259 5.58643 34.747 5.84007 34.4284 6.16001L16.0706 24.8799C15.39 25.562 15.4343 26.4718 15.4343 27.4427V27.5581C15.4343 28.529 15.39 29.438 16.0706 30.1194L34.6094 48.8392C35.2587 49.4886 36.0318 49.8453 36.9492 49.8453C37.8682 49.8453 38.6855 49.4878 39.3349 48.8392C40.6755 47.4986 40.6526 45.3177 39.3119 43.9771L23.9035 28.5802C23.6164 28.2944 23.4546 27.9062 23.4535 27.5011C23.4525 27.096 23.6125 26.7071 23.8982 26.4199L39.2928 11.0229C39.9363 10.3774 40.2976 9.50314 40.2975 8.59169C40.2973 7.68025 39.9358 6.80606 39.2921 6.16078C38.9732 5.84052 38.594 5.58665 38.1764 5.41384C37.7588 5.24103 37.311 5.1527 36.8591 5.15397Z" fill="black"/>
</svg>
