<svg width="55" height="55" viewBox="0 0 55 55" fill="none" xmlns="http://www.w3.org/2000/svg">
<path d="M49.5916 29.7916C49.2608 29.5182 48.8599 29.3432 48.4345 29.2864C48.009 29.2297 47.5762 29.2936 47.1854 29.4708C44.7621 30.5797 42.1274 31.1504 39.4624 31.1437C34.5327 31.1378 29.8053 29.1831 26.3109 25.7058C22.8165 22.2286 20.8385 17.5108 20.8083 12.5812C20.8187 11.0362 21.011 9.49788 21.3812 7.99788C21.4597 7.59807 21.4303 7.18455 21.2958 6.79992C21.1614 6.41529 20.9268 6.07345 20.6163 5.80964C20.3058 5.54582 19.9306 5.36956 19.5293 5.29901C19.128 5.22847 18.7151 5.26619 18.3333 5.40829C14.7407 7.02371 11.6177 9.52587 9.25772 12.6797C6.89774 15.8336 5.37821 19.5356 4.84189 23.4379C4.30557 27.3403 4.77006 31.315 6.19173 34.9886C7.6134 38.6622 9.94558 41.914 12.9692 44.4387C15.9928 46.9634 19.6085 48.6781 23.4768 49.4216C27.3451 50.1651 31.3388 49.9131 35.083 48.6892C38.8271 47.4654 42.1986 45.3098 44.8809 42.425C47.5631 39.5403 49.468 36.021 50.4166 32.1979C50.5321 31.7602 50.5155 31.298 50.3686 30.8698C50.2218 30.4415 49.9514 30.0664 49.5916 29.7916ZM27.8208 45.1229C23.9748 45.0957 20.2312 43.8805 17.1026 41.6435C13.974 39.4065 11.6133 36.2572 10.3438 32.6267C9.07426 28.9962 8.95792 25.0621 10.0107 21.3629C11.0635 17.6637 13.234 14.3804 16.2249 11.9625V12.5812C16.231 18.7423 18.6812 24.6493 23.0378 29.0059C27.3943 33.3625 33.3013 35.8126 39.4624 35.8187C41.0801 35.8246 42.6936 35.6556 44.2749 35.3145C42.6935 38.3064 40.3252 40.8096 37.4255 42.5543C34.5258 44.2989 31.2048 45.2187 27.8208 45.2145V45.1229Z" fill="black"/>
</svg>
