<svg width="55" height="55" viewBox="0 0 55 55" fill="none" xmlns="http://www.w3.org/2000/svg">
<path d="M11.4583 27.4999C11.4583 26.8921 11.2168 26.3092 10.787 25.8795C10.3573 25.4497 9.77437 25.2083 9.16658 25.2083H6.87492C6.26713 25.2083 5.68424 25.4497 5.25447 25.8795C4.82469 26.3092 4.58325 26.8921 4.58325 27.4999C4.58325 28.1077 4.82469 28.6906 5.25447 29.1204C5.68424 29.5501 6.26713 29.7916 6.87492 29.7916H9.16658C9.77437 29.7916 10.3573 29.5501 10.787 29.1204C11.2168 28.6906 11.4583 28.1077 11.4583 27.4999ZM12.9249 38.9582L11.2978 40.5853C10.871 41.0147 10.6314 41.5955 10.6314 42.201C10.6314 42.8064 10.871 43.3872 11.2978 43.8166C11.7272 44.2434 12.308 44.483 12.9135 44.483C13.5189 44.483 14.0997 44.2434 14.5291 43.8166L16.1562 42.1895C16.5316 41.7511 16.7278 41.1872 16.7055 40.6104C16.6832 40.0337 16.4441 39.4866 16.036 39.0784C15.6279 38.6703 15.0808 38.4312 14.504 38.4089C13.9272 38.3866 13.3633 38.5828 12.9249 38.9582ZM27.4999 11.4583C28.1077 11.4583 28.6906 11.2168 29.1204 10.787C29.5501 10.3573 29.7916 9.77437 29.7916 9.16658V6.87492C29.7916 6.26713 29.5501 5.68424 29.1204 5.25447C28.6906 4.82469 28.1077 4.58325 27.4999 4.58325C26.8921 4.58325 26.3092 4.82469 25.8795 5.25447C25.4497 5.68424 25.2083 6.26713 25.2083 6.87492V9.16658C25.2083 9.77437 25.4497 10.3573 25.8795 10.787C26.3092 11.2168 26.8921 11.4583 27.4999 11.4583ZM40.4707 16.8208C41.0719 16.8182 41.6481 16.5795 42.0749 16.1562L43.702 14.5291C43.9419 14.3236 44.1367 14.0708 44.2743 13.7865C44.4118 13.5022 44.4891 13.1925 44.5013 12.8769C44.5135 12.5613 44.4603 12.2466 44.3451 11.9525C44.2299 11.6584 44.0552 11.3913 43.8318 11.168C43.6085 10.9447 43.3414 10.7699 43.0473 10.6547C42.7532 10.5395 42.4385 10.4863 42.1229 10.4985C41.8073 10.5107 41.4976 10.588 41.2133 10.7255C40.929 10.8631 40.6762 11.0579 40.4707 11.2978L38.9582 12.9249C38.5314 13.3543 38.2919 13.9351 38.2919 14.5405C38.2919 15.146 38.5314 15.7268 38.9582 16.1562C39.3623 16.558 39.9015 16.795 40.4707 16.8208ZM12.9708 16.1562C13.3976 16.5795 13.9737 16.8182 14.5749 16.8208C14.8765 16.8225 15.1755 16.7647 15.4547 16.6506C15.7339 16.5366 15.9879 16.3686 16.202 16.1562C16.6288 15.7268 16.8684 15.146 16.8684 14.5405C16.8684 13.9351 16.6288 13.3543 16.202 12.9249L14.5749 11.2978C14.3628 11.0827 14.1103 10.9114 13.8319 10.7938C13.5536 10.6762 13.2548 10.6145 12.9526 10.6124C12.6504 10.6103 12.3508 10.6677 12.0708 10.7814C11.7908 10.895 11.5359 11.0628 11.3208 11.2749C11.1056 11.4871 10.9343 11.7396 10.8167 12.0179C10.6991 12.2963 10.6375 12.5951 10.6353 12.8973C10.631 13.5075 10.8693 14.0945 11.2978 14.5291L12.9708 16.1562ZM48.1249 25.2083H45.8332C45.2255 25.2083 44.6426 25.4497 44.2128 25.8795C43.783 26.3092 43.5416 26.8921 43.5416 27.4999C43.5416 28.1077 43.783 28.6906 44.2128 29.1204C44.6426 29.5501 45.2255 29.7916 45.8332 29.7916H48.1249C48.7327 29.7916 49.3156 29.5501 49.7454 29.1204C50.1751 28.6906 50.4166 28.1077 50.4166 27.4999C50.4166 26.8921 50.1751 26.3092 49.7454 25.8795C49.3156 25.4497 48.7327 25.2083 48.1249 25.2083ZM42.0749 38.9582C41.6395 38.7161 41.1371 38.6224 40.6437 38.6914C40.1503 38.7603 39.6928 38.9882 39.3405 39.3405C38.9882 39.6928 38.7603 40.1503 38.6914 40.6437C38.6224 41.1371 38.7161 41.6395 38.9582 42.0749L40.5853 43.702C41.0147 44.1288 41.5955 44.3684 42.201 44.3684C42.8064 44.3684 43.3872 44.1288 43.8166 43.702C44.2434 43.2726 44.483 42.6918 44.483 42.0864C44.483 41.4809 44.2434 40.9001 43.8166 40.4707L42.0749 38.9582ZM27.4999 14.8958C25.007 14.8958 22.5702 15.635 20.4974 17.0199C18.4247 18.4049 16.8092 20.3734 15.8552 22.6765C14.9012 24.9796 14.6516 27.5139 15.1379 29.9589C15.6243 32.4038 16.8247 34.6497 18.5874 36.4124C20.3501 38.1751 22.596 39.3756 25.041 39.8619C27.4859 40.3482 30.0202 40.0986 32.3233 39.1446C34.6264 38.1907 36.5949 36.5752 37.9799 34.5024C39.3649 32.4297 40.1041 29.9928 40.1041 27.4999C40.098 24.1589 38.7681 20.9565 36.4057 18.5941C34.0433 16.2317 30.8409 14.9018 27.4999 14.8958ZM27.4999 35.5207C25.9135 35.5207 24.3628 35.0503 23.0438 34.169C21.7248 33.2877 20.6967 32.035 20.0896 30.5694C19.4826 29.1037 19.3237 27.491 19.6332 25.9351C19.9427 24.3792 20.7066 22.9501 21.8283 21.8283C22.9501 20.7066 24.3792 19.9427 25.9351 19.6332C27.491 19.3237 29.1037 19.4826 30.5694 20.0896C32.035 20.6967 33.2877 21.7248 34.169 23.0438C35.0503 24.3628 35.5207 25.9135 35.5207 27.4999C35.5207 29.6272 34.6757 31.6673 33.1715 33.1715C31.6673 34.6757 29.6272 35.5207 27.4999 35.5207ZM27.4999 43.5416C26.8921 43.5416 26.3092 43.783 25.8795 44.2128C25.4497 44.6426 25.2083 45.2255 25.2083 45.8332V48.1249C25.2083 48.7327 25.4497 49.3156 25.8795 49.7454C26.3092 50.1751 26.8921 50.4166 27.4999 50.4166C28.1077 50.4166 28.6906 50.1751 29.1204 49.7454C29.5501 49.3156 29.7916 48.7327 29.7916 48.1249V45.8332C29.7916 45.2255 29.5501 44.6426 29.1204 44.2128C28.6906 43.783 28.1077 43.5416 27.4999 43.5416Z" fill="black"/>
</svg>
